<mxfile host="app.diagrams.net" modified="2022-03-30T02:18:52.558Z" agent="5.0 (Windows NT 10.0; Win64; x64) AppleWebKit/537.36 (KHTML, like Gecko) Chrome/99.0.4844.74 Safari/537.36 Edg/99.0.1150.55" etag="zukOxVhCr2jlsZn_Utt-" version="17.2.4" type="github">
  <diagram name="Page-1" id="e7e014a7-5840-1c2e-5031-d8a46d1fe8dd">
    <mxGraphModel dx="1221" dy="634" grid="1" gridSize="10" guides="1" tooltips="1" connect="1" arrows="1" fold="1" page="1" pageScale="1" pageWidth="1169" pageHeight="826" background="none" math="0" shadow="0">
      <root>
        <mxCell id="0" />
        <mxCell id="1" parent="0" />
        <mxCell id="6pFDQqj5p-B1MJBygRL2-49" value="" style="edgeStyle=orthogonalEdgeStyle;rounded=0;orthogonalLoop=1;jettySize=auto;html=1;" parent="1" source="6pFDQqj5p-B1MJBygRL2-41" target="6pFDQqj5p-B1MJBygRL2-43" edge="1">
          <mxGeometry relative="1" as="geometry" />
        </mxCell>
        <mxCell id="6pFDQqj5p-B1MJBygRL2-41" value="人事证明" style="rounded=1;whiteSpace=wrap;html=1;" parent="1" vertex="1">
          <mxGeometry x="190" y="190" width="120" height="50" as="geometry" />
        </mxCell>
        <mxCell id="6pFDQqj5p-B1MJBygRL2-42" value="收入证明" style="ellipse;whiteSpace=wrap;html=1;" parent="1" vertex="1">
          <mxGeometry x="40" y="440" width="120" height="80" as="geometry" />
        </mxCell>
        <mxCell id="6pFDQqj5p-B1MJBygRL2-44" style="edgeStyle=orthogonalEdgeStyle;rounded=0;orthogonalLoop=1;jettySize=auto;html=1;entryX=0.5;entryY=0;entryDx=0;entryDy=0;" parent="1" source="6pFDQqj5p-B1MJBygRL2-43" target="6pFDQqj5p-B1MJBygRL2-42" edge="1">
          <mxGeometry relative="1" as="geometry" />
        </mxCell>
        <mxCell id="6pFDQqj5p-B1MJBygRL2-46" style="edgeStyle=orthogonalEdgeStyle;rounded=0;orthogonalLoop=1;jettySize=auto;html=1;entryX=0.5;entryY=0;entryDx=0;entryDy=0;" parent="1" source="6pFDQqj5p-B1MJBygRL2-43" target="6pFDQqj5p-B1MJBygRL2-45" edge="1">
          <mxGeometry relative="1" as="geometry" />
        </mxCell>
        <mxCell id="6pFDQqj5p-B1MJBygRL2-48" style="edgeStyle=orthogonalEdgeStyle;rounded=0;orthogonalLoop=1;jettySize=auto;html=1;entryX=0.5;entryY=0;entryDx=0;entryDy=0;" parent="1" source="6pFDQqj5p-B1MJBygRL2-43" target="6pFDQqj5p-B1MJBygRL2-47" edge="1">
          <mxGeometry relative="1" as="geometry" />
        </mxCell>
        <mxCell id="6pFDQqj5p-B1MJBygRL2-43" value="功能项列表页" style="ellipse;whiteSpace=wrap;html=1;" parent="1" vertex="1">
          <mxGeometry x="190" y="300" width="120" height="80" as="geometry" />
        </mxCell>
        <mxCell id="6pFDQqj5p-B1MJBygRL2-45" value="在职证明" style="ellipse;whiteSpace=wrap;html=1;" parent="1" vertex="1">
          <mxGeometry x="190" y="440" width="120" height="80" as="geometry" />
        </mxCell>
        <mxCell id="6pFDQqj5p-B1MJBygRL2-51" value="" style="edgeStyle=orthogonalEdgeStyle;rounded=0;orthogonalLoop=1;jettySize=auto;html=1;" parent="1" source="6pFDQqj5p-B1MJBygRL2-47" target="6pFDQqj5p-B1MJBygRL2-50" edge="1">
          <mxGeometry relative="1" as="geometry" />
        </mxCell>
        <mxCell id="6pFDQqj5p-B1MJBygRL2-47" value="我已发起列表页面" style="ellipse;whiteSpace=wrap;html=1;" parent="1" vertex="1">
          <mxGeometry x="420" y="440" width="120" height="80" as="geometry" />
        </mxCell>
        <mxCell id="6pFDQqj5p-B1MJBygRL2-50" value="通过/审批中/不通过" style="ellipse;whiteSpace=wrap;html=1;" parent="1" vertex="1">
          <mxGeometry x="420" y="560" width="120" height="80" as="geometry" />
        </mxCell>
        <mxCell id="P28ipixv4sPTAX5asOn1-2" value="" style="edgeStyle=orthogonalEdgeStyle;rounded=0;orthogonalLoop=1;jettySize=auto;html=1;" edge="1" parent="1" source="P28ipixv4sPTAX5asOn1-3" target="P28ipixv4sPTAX5asOn1-8">
          <mxGeometry relative="1" as="geometry" />
        </mxCell>
        <mxCell id="P28ipixv4sPTAX5asOn1-3" value="审核盖章" style="rounded=1;whiteSpace=wrap;html=1;" vertex="1" parent="1">
          <mxGeometry x="760" y="190" width="120" height="50" as="geometry" />
        </mxCell>
        <mxCell id="P28ipixv4sPTAX5asOn1-6" style="edgeStyle=orthogonalEdgeStyle;rounded=0;orthogonalLoop=1;jettySize=auto;html=1;entryX=0.5;entryY=0;entryDx=0;entryDy=0;" edge="1" parent="1" source="P28ipixv4sPTAX5asOn1-8" target="P28ipixv4sPTAX5asOn1-9">
          <mxGeometry relative="1" as="geometry" />
        </mxCell>
        <mxCell id="P28ipixv4sPTAX5asOn1-8" value="审核/已审核列表" style="ellipse;whiteSpace=wrap;html=1;" vertex="1" parent="1">
          <mxGeometry x="760" y="300" width="120" height="80" as="geometry" />
        </mxCell>
        <mxCell id="P28ipixv4sPTAX5asOn1-9" value="审核表单界面" style="ellipse;whiteSpace=wrap;html=1;" vertex="1" parent="1">
          <mxGeometry x="760" y="440" width="120" height="80" as="geometry" />
        </mxCell>
      </root>
    </mxGraphModel>
  </diagram>
</mxfile>
